<?xml version="1.0" standalone="no"?>
<!DOCTYPE svg PUBLIC "-//W3C//DTD SVG 20010904//EN"
 "http://www.w3.org/TR/2001/REC-SVG-20010904/DTD/svg10.dtd">
<svg version="1.0" xmlns="http://www.w3.org/2000/svg"
 width="477.000000pt" height="477.000000pt" viewBox="0 0 477.000000 477.000000"
 preserveAspectRatio="xMidYMid meet">
<metadata>
Created by potrace 1.11, written by Peter Selinger 2001-2013
</metadata>
<g transform="translate(0.000000,477.000000) scale(0.100000,-0.100000)"
fill="#000000" stroke="none">
<path d="M2154 4761 c-96 -25 -198 -114 -238 -208 -20 -47 -21 -66 -23 -790
l-3 -743 43 -1 c46 0 601 0 630 1 17 0 17 37 15 748 l-3 747 -26 55 c-56 116
-164 189 -291 195 -40 2 -87 1 -104 -4z"/>
<path d="M1605 4289 c-56 -30 -81 -55 -109 -112 -25 -49 -25 -50 -26 -363 0
-173 -5 -325 -10 -338 -29 -78 -161 -77 -191 0 -5 14 -10 156 -10 315 -1 159
-3 289 -6 289 -4 0 -75 -64 -122 -111 -146 -147 -268 -335 -346 -538 -39 -100
-80 -263 -90 -353 l-7 -58 59 -1 c32 0 255 -1 496 -2 l437 -2 1 40 c0 44 0
1236 -1 1248 0 13 -35 7 -75 -14z"/>
<path d="M2791 3665 l0 -645 67 -1 c335 -3 911 0 919 4 7 4 7 23 3 49 -5 24
-11 63 -15 88 -25 182 -132 434 -265 622 -58 82 -259 298 -278 298 -4 0 -7
-125 -7 -278 1 -152 -3 -290 -7 -307 -23 -85 -136 -108 -185 -37 -16 25 -18
57 -20 347 -1 352 -3 360 -65 431 -32 37 -97 73 -130 74 -16 0 -17 -45 -17
-645z"/>
<path d="M490 2792 c-45 -22 -54 -60 -55 -220 -1 -162 7 -191 58 -215 48 -23
3447 -23 3490 0 45 23 56 63 56 217 1 150 -10 194 -51 218 -35 20 -3457 20
-3498 0z"/>
<path d="M456 1152 c1 -350 2 -642 3 -648 1 -8 148 -11 509 -10 l507 1 3 168
2 167 -293 0 -293 0 1 463 c0 254 -1 470 -3 480 -4 16 -23 17 -221 17 l-216 0
1 -638z"/>
<path d="M1603 1143 l2 -648 195 0 195 0 5 280 5 280 138 -223 c110 -177 143
-222 160 -223 43 -2 170 1 173 3 1 2 64 107 139 233 75 127 138 231 139 232 1
1 3 -126 4 -283 1 -157 4 -289 7 -294 2 -4 92 -7 199 -7 l194 0 -1 649 -2 648
-180 0 -180 0 -115 -192 c-63 -106 -154 -260 -203 -343 -49 -82 -90 -151 -92
-153 -1 -2 -11 12 -22 30 -57 94 -232 381 -310 508 l-90 145 -181 3 -181 2 2
-647z"/>
<path d="M3370 1142 l0 -649 510 0 c281 0 510 3 511 6 5 31 2 324 -3 327 -4 3
-136 5 -293 4 -223 0 -285 2 -286 12 0 7 -1 223 -1 481 l-1 467 -218 0 -219 0
0 -648z"/>
</g>
</svg>
